# xmcd CD database file generated by Grip 2.95
# 
# Track frame offsets:
#       192
#       15702
#       31125
#       55315
#       69112
#       86520
#       98397
#       114622
#       131515
#       154075
# 
# Disc length: 2242 seconds
# 
# Revision: 3
# Processed by: cddbd v1.4b41PL1 Copyright (c) Steve Scherf et al.
# Submitted via: Grip 2.95
# 
DISCID=6f08c00a
DTITLE=Marcia Ball - Soulful Dress
DYEAR=1900
DGENRE=
TTITLE0=Soulful Dress
TTITLE1=Made Your Move Too Soon
TTITLE2=I'd Rather Go Blind
TTITLE3=Jailbird
TTITLE4=Eugene
TTITLE5=My Mind's Made Up
TTITLE6=A Thousand Times
TTITLE7=That's Why I Love You
TTITLE8=Soul On Fire
TTITLE9=Don't Want No Man
EXTD=
EXTT0=
EXTT1=
EXTT2=
EXTT3=
EXTT4=
EXTT5=
EXTT6=
EXTT7=
EXTT8=
EXTT9=
PLAYORDER=
